<svg width="76" height="76" viewBox="0 0 76 76" fill="none" xmlns="http://www.w3.org/2000/svg">
<g clip-path="url(#clip0_396_698)">
<path d="M55.7265 47.5161C54.4211 48.7912 52.9997 49.953 51.4747 50.967C49.9498 51.9754 48.3306 52.8501 46.6424 53.5475C44.957 54.2505 43.2154 54.8015 41.4505 55.2188C39.6842 55.6319 37.8989 55.9162 36.1136 56.1118C32.5409 56.4981 28.9759 56.5207 25.4729 56.603L24.1633 56.641L23.5103 56.6635C23.397 56.6649 23.2984 56.672 23.202 56.6818L22.9079 56.7029C22.1268 56.7782 21.3569 56.9598 20.623 57.2441C19.1557 57.8134 17.8511 58.7993 16.9011 60.0589C16.4225 60.6908 16.0418 61.3783 15.7435 62.1264C15.4338 62.9075 15.1714 63.7083 14.9567 64.5232C14.7477 65.3381 14.5803 66.1635 14.4712 66.9981C14.4156 67.414 14.3734 67.832 14.3445 68.2493C14.3375 68.3541 14.3318 68.4569 14.3276 68.5617C14.3234 68.6272 14.3164 68.8657 14.2734 69.0459C14.1897 69.4252 14.0053 69.7827 13.7435 70.0641C13.2235 70.6377 12.3805 70.8938 11.6331 70.7045C10.8788 70.5272 10.2497 69.9262 10.0484 69.1754C10.0203 69.0832 10.0069 68.9882 9.98999 68.8939L9.97592 68.7517L9.97029 68.6793L9.96888 68.6363L9.95903 68.3028L9.93933 67.6357C9.93792 67.1853 9.91821 66.7384 9.93229 66.2867C9.95199 64.4817 10.1138 62.6654 10.4418 60.8815C11.0878 57.3032 12.4586 53.9015 14.2164 50.7707C14.8216 49.7025 15.4789 48.6687 16.1805 47.6681L17.0411 49.0839L16.8947 49.3C16.659 49.661 16.45 50.041 16.2262 50.409C16.0102 50.7841 15.7773 51.1486 15.5746 51.5293C13.9385 54.5609 12.6985 57.8063 12.1475 61.1806C11.8675 62.8674 11.7429 64.5731 11.7528 66.2902C11.7471 66.7201 11.7711 67.1536 11.7767 67.5836L11.802 68.2366L11.8147 68.5646L11.8161 68.6026L11.8189 68.6138C11.8203 68.6208 11.8217 68.6279 11.8203 68.6349C11.8274 68.6476 11.8231 68.6631 11.8316 68.6764C11.8583 68.7813 11.9597 68.8693 12.0645 68.8897C12.175 68.9164 12.2904 68.8756 12.3615 68.7933C12.3995 68.7531 12.4199 68.7039 12.4325 68.6525C12.4368 68.6793 12.4452 68.3443 12.4593 68.1353C12.4846 67.6723 12.5275 67.2134 12.5831 66.756C12.695 65.844 12.866 64.9384 13.087 64.0454C13.3143 63.1538 13.5908 62.2748 13.9209 61.4142C14.2657 60.5226 14.7344 59.6493 15.3128 58.8724C16.4662 57.3088 18.0636 56.0745 19.8742 55.3518C20.7785 54.9894 21.7348 54.7523 22.7059 54.6516L23.0697 54.6193C23.1922 54.608 23.3139 54.5981 23.4216 54.5967L24.0887 54.5658L25.4194 54.5243C28.9555 54.4307 32.4487 54.3948 35.8828 54.0099C37.5984 53.817 39.295 53.5384 40.9593 53.1464C42.6207 52.746 44.2456 52.2231 45.8092 51.5659C47.3757 50.9143 48.8682 50.1001 50.2742 49.1627C51.6844 48.2268 53.0053 47.1565 54.2262 45.975C54.5415 45.6879 54.823 45.3698 55.1164 45.063L55.5527 44.5985C55.6977 44.4423 55.8482 44.2917 55.9798 44.1242L56.7933 43.1433L56.9967 42.8977C57.0635 42.8139 57.1234 42.726 57.1867 42.6408L57.5618 42.1264C58.0818 41.453 58.5216 40.7232 58.9832 40.0076C59.2049 39.6466 59.4034 39.2694 59.6152 38.8985L59.9262 38.3419L60.2077 37.767C60.9846 36.2505 61.601 34.6524 62.1274 33.024C62.2512 32.6151 62.3955 32.2119 62.5011 31.7967L62.829 30.554C63.0176 29.7187 63.2167 28.8827 63.3533 28.0347C63.9598 24.652 64.1527 21.187 64.0204 17.7318C63.9535 16.0049 63.8029 14.278 63.5742 12.5624C63.4567 11.706 63.3244 10.851 63.164 10.0016C63.121 9.7687 63.076 9.53436 63.0288 9.30285L62.677 9.67088C62.3927 9.96362 62.1119 10.2585 61.8248 10.5484L60.91 11.3661C59.663 12.421 58.3239 13.3801 56.8771 14.1324C56.5252 14.3414 56.1544 14.5088 55.7877 14.6834C55.4183 14.8551 55.0552 15.0415 54.6745 15.183C54.2994 15.3322 53.9257 15.4884 53.5457 15.6334L52.398 16.0225C50.8583 16.5053 49.2954 16.8817 47.7247 17.1717C44.582 17.7367 41.4336 18.0196 38.3183 18.3278C36.7589 18.4813 35.2114 18.6558 33.676 18.8831C32.1391 19.1033 30.6212 19.4017 29.1357 19.8021C27.653 20.2053 26.1907 20.6993 24.8227 21.3812C23.4525 22.0561 22.1486 22.8611 20.96 23.8266C19.7954 24.8104 18.7075 25.9229 17.7181 27.1101C16.728 28.2958 15.8364 29.5695 15.0623 30.9101C13.5071 33.5926 12.4234 36.551 11.8231 39.6114C11.6754 40.3756 11.5522 41.1483 11.4635 41.9244C11.3657 42.6999 11.3087 43.4796 11.275 44.2607C11.2151 45.8244 11.2567 47.3978 11.4924 48.9502C11.1898 47.4091 11.0793 45.8314 11.0737 44.2579C11.0723 43.4698 11.099 42.6816 11.1631 41.8949C11.187 41.5001 11.2327 41.1081 11.2735 40.7162C11.3249 40.3242 11.3742 39.9323 11.4382 39.5445C11.9393 36.4243 12.9251 33.3646 14.4346 30.561C15.189 29.1621 16.0679 27.8257 17.0531 26.5731C18.039 25.3191 19.1163 24.1475 20.319 23.068C21.5406 22.016 22.8924 21.1194 24.3237 20.377C25.7508 19.6283 27.2687 19.0759 28.8028 18.6206C30.3376 18.1688 31.8998 17.8254 33.4648 17.5629C35.0285 17.2962 36.5963 17.0816 38.1585 16.8923C39.7194 16.6981 41.2788 16.5257 42.8248 16.3244C44.3701 16.121 45.9063 15.8853 47.4228 15.5876C48.9351 15.2836 50.4234 14.8973 51.8702 14.416L52.9455 14.0324C53.2987 13.8917 53.6457 13.7397 53.9975 13.5947C54.3508 13.4568 54.6836 13.2767 55.0242 13.112C55.3634 12.9431 55.7061 12.7841 56.027 12.5835C57.3577 11.8693 58.5674 10.9587 59.7038 9.9777L60.5377 9.2191L61.316 8.39859L61.7038 7.98833L62.0591 7.54922L62.7762 6.6731L63.9465 5.23755L64.4334 6.98836C64.5601 7.45281 64.6621 7.87855 64.7642 8.32329C64.8648 8.76099 64.957 9.20222 65.0428 9.64273C65.2174 10.5231 65.3623 11.4076 65.4932 12.2943C65.7487 14.0669 65.9218 15.8529 66.009 17.6453C66.1765 21.225 66.0344 24.8378 65.4052 28.3957C65.2631 29.2859 65.059 30.1677 64.8627 31.0473L64.5193 32.3611C64.4074 32.7988 64.2582 33.2274 64.1287 33.6608C63.5791 35.3849 62.9275 37.0858 62.1049 38.7092L61.8079 39.3214L61.4758 39.9182C61.2527 40.3144 61.0423 40.7176 60.8037 41.1067C60.314 41.8724 59.8439 42.6549 59.2901 43.379L58.8897 43.9328C58.8214 44.0236 58.7588 44.12 58.6863 44.2094L58.4703 44.4733L57.6012 45.5295C57.4618 45.7083 57.3014 45.8715 57.1466 46.0376L56.6793 46.5386C56.3655 46.8694 56.0643 47.2093 55.7279 47.5182L55.7265 47.5161Z" fill="white"/>
<path fill-rule="evenodd" clip-rule="evenodd" d="M58.2878 20.759C58.2878 20.759 56.9099 24.0756 53.7707 24.5851C50.7258 25.0791 50.0404 27.3049 49.9228 27.8101C49.9081 27.8728 49.9242 27.9375 49.9665 27.9861L52.3161 30.6566C52.3886 30.739 52.5047 30.7699 52.6082 30.7326C58.76 28.511 58.2878 20.7597 58.2878 20.7597V20.759Z" fill="white"/>
<path d="M51.147 31.6504C49.2998 33.2295 47.1204 34.3766 44.8707 35.1957C40.6119 36.779 36.1729 37.038 31.9563 38.5362C27.9171 39.8859 24.1727 42.0448 21.1165 45.0321C16.4558 49.5428 13.4264 55.5095 11.8909 61.8119L10.3667 61.4706C11.2773 57.0506 12.8909 52.7376 15.2997 48.8518C20.4564 40.4643 28.1317 36.0556 37.5853 34.0022C41.6365 33.0733 45.8031 31.8397 48.8516 29.0432L51.1477 31.6497L51.147 31.6504Z" fill="white"/>
</g>
<defs>
<clipPath id="clip0_396_698">
<rect width="76" height="76" fill="white"/>
</clipPath>
</defs>
</svg>
