<svg width="154" height="110" viewBox="0 0 154 110" fill="none" xmlns="http://www.w3.org/2000/svg">
<g clip-path="url(#clip0_379_682)">
<path d="M94.7265 47.5161C93.4211 48.7912 91.9997 49.953 90.4747 50.967C88.9498 51.9754 87.3306 52.8501 85.6424 53.5475C83.957 54.2505 82.2154 54.8015 80.4505 55.2188C78.6842 55.6319 76.8989 55.9162 75.1136 56.1118C71.5409 56.4981 67.9759 56.5207 64.4729 56.603L63.1633 56.641L62.5103 56.6635C62.397 56.6649 62.2984 56.672 62.202 56.6818L61.9079 56.7029C61.1268 56.7782 60.3569 56.9598 59.623 57.2441C58.1557 57.8134 56.8511 58.7993 55.9011 60.0589C55.4225 60.6908 55.0418 61.3783 54.7435 62.1264C54.4338 62.9075 54.1714 63.7083 53.9567 64.5232C53.7477 65.3381 53.5803 66.1635 53.4712 66.9981C53.4156 67.414 53.3734 67.832 53.3445 68.2493C53.3375 68.3541 53.3318 68.4569 53.3276 68.5617C53.3234 68.6272 53.3164 68.8657 53.2734 69.0459C53.1897 69.4252 53.0053 69.7827 52.7435 70.0641C52.2235 70.6377 51.3805 70.8938 50.6331 70.7045C49.8788 70.5272 49.2497 69.9262 49.0484 69.1754C49.0203 69.0832 49.0069 68.9882 48.99 68.8939L48.9759 68.7517L48.9703 68.6793L48.9689 68.6363L48.959 68.3028L48.9393 67.6357C48.9379 67.1853 48.9182 66.7384 48.9323 66.2867C48.952 64.4817 49.1138 62.6654 49.4418 60.8815C50.0878 57.3032 51.4586 53.9015 53.2164 50.7707C53.8216 49.7025 54.4789 48.6687 55.1805 47.6681L56.0411 49.0839L55.8947 49.3C55.659 49.661 55.45 50.041 55.2262 50.409C55.0102 50.7841 54.7773 51.1486 54.5746 51.5293C52.9385 54.5609 51.6985 57.8063 51.1475 61.1806C50.8675 62.8674 50.7429 64.5731 50.7528 66.2902C50.7471 66.7201 50.7711 67.1536 50.7767 67.5836L50.802 68.2366L50.8147 68.5646L50.8161 68.6026L50.8189 68.6138C50.8203 68.6208 50.8217 68.6279 50.8203 68.6349C50.8274 68.6476 50.8231 68.6631 50.8316 68.6764C50.8583 68.7813 50.9597 68.8693 51.0645 68.8897C51.175 68.9164 51.2904 68.8756 51.3615 68.7933C51.3995 68.7531 51.4199 68.7039 51.4325 68.6525C51.4368 68.6793 51.4452 68.3443 51.4593 68.1353C51.4846 67.6723 51.5275 67.2134 51.5831 66.756C51.695 65.844 51.866 64.9384 52.087 64.0454C52.3143 63.1538 52.5908 62.2748 52.9209 61.4142C53.2657 60.5226 53.7344 59.6493 54.3128 58.8724C55.4662 57.3088 57.0636 56.0745 58.8742 55.3518C59.7785 54.9894 60.7348 54.7523 61.7059 54.6516L62.0697 54.6193C62.1922 54.608 62.3139 54.5981 62.4216 54.5967L63.0887 54.5658L64.4194 54.5243C67.9555 54.4307 71.4487 54.3948 74.8828 54.0098C76.5984 53.817 78.295 53.5384 79.9593 53.1464C81.6207 52.746 83.2456 52.2231 84.8092 51.5659C86.3757 50.9143 87.8682 50.1001 89.2742 49.1627C90.6844 48.2268 92.0053 47.1565 93.2262 45.975C93.5415 45.6879 93.823 45.3698 94.1164 45.063L94.5527 44.5985C94.6977 44.4423 94.8482 44.2917 94.9798 44.1242L95.7933 43.1433L95.9967 42.8977C96.0635 42.8139 96.1234 42.726 96.1867 42.6408L96.5618 42.1264C97.0818 41.453 97.5216 40.7232 97.9832 40.0076C98.2049 39.6466 98.4034 39.2694 98.6152 38.8985L98.9262 38.3419L99.2077 37.767C99.9846 36.2505 100.601 34.6524 101.127 33.024C101.251 32.6151 101.396 32.2119 101.501 31.7967L101.829 30.554C102.018 29.7187 102.217 28.8827 102.353 28.0347C102.96 24.652 103.153 21.187 103.02 17.7318C102.954 16.0049 102.803 14.278 102.574 12.5624C102.457 11.706 102.324 10.851 102.164 10.0016C102.121 9.7687 102.076 9.53436 102.029 9.30285L101.677 9.67088C101.393 9.96362 101.112 10.2585 100.825 10.5484L99.91 11.3661C98.663 12.421 97.3239 13.3801 95.8771 14.1324C95.5252 14.3414 95.1544 14.5088 94.7877 14.6834C94.4183 14.8551 94.0552 15.0415 93.6745 15.183C93.2994 15.3322 92.9257 15.4884 92.5457 15.6334L91.398 16.0225C89.8583 16.5053 88.2954 16.8817 86.7247 17.1717C83.582 17.7367 80.4336 18.0196 77.3183 18.3278C75.7589 18.4813 74.2114 18.6558 72.676 18.8831C71.1391 19.1033 69.6212 19.4017 68.1357 19.8021C66.653 20.2053 65.1907 20.6993 63.8227 21.3812C62.4525 22.0561 61.1486 22.8611 59.96 23.8266C58.7954 24.8104 57.7075 25.9229 56.7181 27.1101C55.728 28.2958 54.8364 29.5695 54.0623 30.9101C52.5071 33.5926 51.4234 36.551 50.8231 39.6114C50.6754 40.3756 50.5522 41.1483 50.4635 41.9244C50.3657 42.6999 50.3087 43.4796 50.275 44.2607C50.2151 45.8244 50.2567 47.3978 50.4924 48.9502C50.1898 47.4091 50.0793 45.8314 50.0737 44.2579C50.0723 43.4698 50.099 42.6816 50.1631 41.8949C50.187 41.5001 50.2327 41.1081 50.2735 40.7162C50.3249 40.3242 50.3742 39.9323 50.4382 39.5445C50.9393 36.4243 51.9251 33.3646 53.4346 30.561C54.189 29.1621 55.0679 27.8257 56.0531 26.5731C57.039 25.3191 58.1163 24.1475 59.319 23.068C60.5406 22.016 61.8924 21.1194 63.3237 20.377C64.7508 19.6283 66.2687 19.0759 67.8028 18.6206C69.3376 18.1688 70.8998 17.8254 72.4648 17.5629C74.0285 17.2962 75.5963 17.0816 77.1585 16.8923C78.7194 16.6981 80.2788 16.5257 81.8248 16.3244C83.3701 16.121 84.9063 15.8853 86.4228 15.5876C87.9351 15.2836 89.4234 14.8973 90.8702 14.416L91.9455 14.0324C92.2987 13.8917 92.6457 13.7397 92.9975 13.5947C93.3508 13.4568 93.6836 13.2767 94.0242 13.112C94.3634 12.9431 94.7061 12.7841 95.027 12.5835C96.3577 11.8693 97.5674 10.9587 98.7038 9.9777L99.5377 9.2191L100.316 8.39859L100.704 7.98833L101.059 7.54922L101.776 6.6731L102.946 5.23755L103.433 6.98836C103.56 7.45281 103.662 7.87855 103.764 8.32329C103.865 8.76099 103.957 9.20222 104.043 9.64273C104.217 10.5231 104.362 11.4076 104.493 12.2943C104.749 14.0669 104.922 15.8529 105.009 17.6453C105.177 21.225 105.034 24.8378 104.405 28.3957C104.263 29.2859 104.059 30.1677 103.863 31.0473L103.519 32.3611C103.407 32.7988 103.258 33.2274 103.129 33.6608C102.579 35.3849 101.928 37.0858 101.105 38.7092L100.808 39.3214L100.476 39.9182C100.253 40.3144 100.042 40.7176 99.8037 41.1067C99.314 41.8724 98.8439 42.6549 98.2901 43.379L97.8897 43.9328C97.8214 44.0236 97.7588 44.12 97.6863 44.2094L97.4702 44.4733L96.6012 45.5295C96.4618 45.7083 96.3014 45.8715 96.1466 46.0376L95.6793 46.5386C95.3655 46.8694 95.0643 47.2093 94.7279 47.5182L94.7265 47.5161Z" fill="url(#paint0_linear_379_682)"/>
<path fill-rule="evenodd" clip-rule="evenodd" d="M97.2878 20.759C97.2878 20.759 95.9099 24.0756 92.7707 24.5851C89.7258 25.0791 89.0404 27.3049 88.9228 27.8101C88.9081 27.8728 88.9242 27.9375 88.9665 27.9861L91.3161 30.6566C91.3886 30.739 91.5047 30.7699 91.6082 30.7326C97.76 28.511 97.2878 20.7597 97.2878 20.7597V20.759Z" fill="url(#paint1_linear_379_682)"/>
<path d="M90.147 31.6504C88.2998 33.2295 86.1204 34.3766 83.8707 35.1957C79.6119 36.779 75.1729 37.038 70.9563 38.5362C66.9171 39.8859 63.1727 42.0448 60.1165 45.0321C55.4558 49.5428 52.4264 55.5095 50.8909 61.8119L49.3667 61.4706C50.2773 57.0506 51.8909 52.7376 54.2997 48.8518C59.4564 40.4643 67.1317 36.0556 76.5853 34.0022C80.6365 33.0733 84.8031 31.8397 87.8516 29.0432L90.1477 31.6497L90.147 31.6504Z" fill="url(#paint2_linear_379_682)"/>
</g>
<path d="M1.82422 88.1914H6.19922V99.1875H10.8867V102H1.82422V88.1914ZM14.002 88.1914H23.6895V90.75H18.377V93.6699H23.0645V96.1699H18.377V99.1875H23.6895V102H14.002V88.1914ZM39.6855 102H34.4707L33.8262 99.0605H30.3984L29.7832 102H26.2578L29.7734 88.1914H35.8867L39.6855 102ZM32.1562 90.3398L30.8184 96.7754H33.6113L32.459 90.3398H32.1562ZM42.4004 88.1914H51.8535V90.75H46.7754V93.6992H51.2285V96.5117H46.7754V102H42.4004V88.1914ZM57.4297 102V97.2539L53.1621 88.1914H58.1816L59.8613 93.1621L61.4043 88.1914H65.6621L61.8047 97.127V102H57.4297ZM75.9648 88.1914H81.2969C82.2214 88.1914 83.0319 88.25 83.7285 88.3672C84.4316 88.4779 85.0404 88.6374 85.5547 88.8457C86.069 89.054 86.4954 89.3047 86.834 89.5977C87.179 89.8906 87.4525 90.2129 87.6543 90.5645C87.8626 90.9095 88.0091 91.2806 88.0938 91.6777C88.1784 92.0749 88.2207 92.485 88.2207 92.9082C88.2207 93.2663 88.1784 93.6243 88.0938 93.9824C88.0156 94.3405 87.8789 94.6823 87.6836 95.0078C87.4948 95.3333 87.2409 95.6361 86.9219 95.916C86.6029 96.196 86.209 96.4401 85.7402 96.6484C85.278 96.8568 84.7279 97.0195 84.0898 97.1367C83.4583 97.2539 82.7292 97.3125 81.9023 97.3125C81.7852 97.3125 81.6387 97.3125 81.4629 97.3125C81.2871 97.306 81.1146 97.2962 80.9453 97.2832L80.3398 97.2441V102H75.9648V88.1914ZM80.3398 95.125H81.3457C81.8145 95.125 82.2083 95.0697 82.5273 94.959C82.8464 94.8418 83.1035 94.6855 83.2988 94.4902C83.4941 94.2949 83.6341 94.0638 83.7188 93.7969C83.8034 93.5299 83.8457 93.2435 83.8457 92.9375C83.8457 92.4492 83.7839 92.0456 83.6602 91.7266C83.5365 91.4076 83.3607 91.1536 83.1328 90.9648C82.9115 90.7695 82.6478 90.6328 82.3418 90.5547C82.0358 90.4766 81.7038 90.4375 81.3457 90.4375H80.3398V95.125ZM101.6 102H96.3848L95.7402 99.0605H92.3125L91.6973 102H88.1719L91.6875 88.1914H97.8008L101.6 102ZM94.0703 90.3398L92.7324 96.7754H95.5254L94.373 90.3398H94.0703ZM104.314 88.1914H108.689V102H104.314V88.1914ZM112.957 88.1914H117.186L122.439 95.125V88.1914H125.779V102H121.443L116.268 94.6562V102H112.957V88.1914ZM131.609 102V91.375H128.484V88.1914H139.178V91.375H135.984V102H131.609ZM151.736 91.7754C151.469 91.6582 151.157 91.541 150.799 91.4238C150.447 91.3001 150.076 91.1895 149.686 91.0918C149.301 90.9941 148.911 90.916 148.514 90.8574C148.117 90.7923 147.742 90.7598 147.391 90.7598C146.779 90.7598 146.3 90.8379 145.955 90.9941C145.61 91.1504 145.438 91.4141 145.438 91.7852C145.438 91.9609 145.496 92.1172 145.613 92.2539C145.737 92.3841 145.91 92.5078 146.131 92.625C146.352 92.7357 146.616 92.8464 146.922 92.957C147.234 93.0612 147.579 93.1719 147.957 93.2891L148.67 93.5137C149.269 93.696 149.806 93.9173 150.281 94.1777C150.757 94.4316 151.157 94.7344 151.482 95.0859C151.814 95.431 152.068 95.8281 152.244 96.2773C152.42 96.7266 152.508 97.2376 152.508 97.8105C152.508 98.4811 152.4 99.0931 152.186 99.6465C151.977 100.193 151.648 100.662 151.199 101.053C150.75 101.443 150.174 101.746 149.471 101.961C148.774 102.176 147.934 102.283 146.951 102.283C146.079 102.283 145.21 102.212 144.344 102.068C143.484 101.925 142.615 101.674 141.736 101.316V98.0938C142.576 98.5234 143.39 98.8392 144.178 99.041C144.972 99.2363 145.753 99.334 146.521 99.334C147.153 99.334 147.612 99.2331 147.898 99.0312C148.191 98.8294 148.338 98.5495 148.338 98.1914C148.338 97.9766 148.283 97.7943 148.172 97.6445C148.068 97.4883 147.895 97.3451 147.654 97.2148C147.42 97.0846 147.111 96.9544 146.727 96.8242C146.342 96.6875 145.877 96.5345 145.33 96.3652C144.783 96.2025 144.275 95.9974 143.807 95.75C143.344 95.5026 142.944 95.2064 142.605 94.8613C142.267 94.5098 142 94.1029 141.805 93.6406C141.616 93.1784 141.521 92.651 141.521 92.0586C141.521 91.4466 141.629 90.8867 141.844 90.3789C142.059 89.8711 142.387 89.4382 142.83 89.0801C143.273 88.7155 143.833 88.4323 144.51 88.2305C145.193 88.0286 146.004 87.9277 146.941 87.9277C147.312 87.9277 147.706 87.944 148.123 87.9766C148.54 88.0091 148.963 88.0579 149.393 88.123C149.829 88.1882 150.258 88.2728 150.682 88.377C151.105 88.4811 151.505 88.6048 151.883 88.748L151.736 91.7754Z" fill="url(#paint3_linear_379_682)"/>
<defs>
<linearGradient id="paint0_linear_379_682" x1="77.0005" y1="5.23755" x2="77.0005" y2="70.7661" gradientUnits="userSpaceOnUse">
<stop stop-color="#7ED56F"/>
<stop offset="1" stop-color="#28B482"/>
</linearGradient>
<linearGradient id="paint1_linear_379_682" x1="93.1068" y1="20.759" x2="93.1068" y2="30.7483" gradientUnits="userSpaceOnUse">
<stop stop-color="#7ED56F"/>
<stop offset="1" stop-color="#28B482"/>
</linearGradient>
<linearGradient id="paint2_linear_379_682" x1="69.7572" y1="29.0432" x2="69.7572" y2="61.8119" gradientUnits="userSpaceOnUse">
<stop stop-color="#7ED56F"/>
<stop offset="1" stop-color="#28B482"/>
</linearGradient>
<linearGradient id="paint3_linear_379_682" x1="154" y1="76" x2="-1.34885e-07" y2="110" gradientUnits="userSpaceOnUse">
<stop stop-color="#7ED56F"/>
<stop offset="1" stop-color="#28B482"/>
</linearGradient>
<clipPath id="clip0_379_682">
<rect width="76" height="76" fill="white" transform="translate(39)"/>
</clipPath>
</defs>
</svg>
