<svg width="36" height="36" viewBox="0 0 36 36" fill="none" xmlns="http://www.w3.org/2000/svg">
<path d="M25.4536 16.9044C25.3284 16.8425 25.2013 16.7829 25.0725 16.7258C24.8482 12.4591 22.59 10.0164 18.7981 9.99141C18.781 9.9913 18.7639 9.9913 18.7467 9.9913C16.4787 9.9913 14.5924 10.9908 13.4314 12.8095L15.5168 14.2864C16.3841 12.9279 17.7453 12.6383 18.7477 12.6383C18.7593 12.6383 18.7709 12.6383 18.7824 12.6384C20.0309 12.6466 20.973 13.0213 21.5828 13.7522C22.0265 14.2843 22.3233 15.0195 22.4703 15.9475C21.3633 15.7532 20.1662 15.6935 18.8864 15.7693C15.2813 15.9837 12.9636 18.1544 13.1193 21.1706C13.1983 22.7006 13.9366 24.0169 15.1981 24.8767C16.2647 25.6036 17.6384 25.9591 19.0661 25.8786C20.9515 25.7719 22.4306 25.0292 23.4625 23.6713C24.2462 22.64 24.7418 21.3036 24.9607 19.6197C25.8592 20.1795 26.5251 20.9162 26.8929 21.8019C27.5183 23.3073 27.5548 25.7812 25.5995 27.7981C23.8864 29.565 21.8272 30.3294 18.7151 30.353C15.263 30.3266 12.6522 29.1836 10.9548 26.9558C9.36526 24.8697 8.54378 21.8566 8.51314 18C8.54378 14.1434 9.36526 11.1303 10.9548 9.04417C12.6522 6.81639 15.263 5.67344 18.7151 5.64695C22.1922 5.67364 24.8485 6.82209 26.611 9.06062C27.4751 10.1584 28.1267 11.5389 28.5562 13.1485L31 12.4753C30.4794 10.4941 29.6601 8.78683 28.5453 7.37094C26.2859 4.50104 22.9814 3.03049 18.7236 3H18.7066C14.4575 3.03039 11.19 4.50653 8.99489 7.38739C7.04155 9.951 6.03396 13.5181 6.00011 17.9895L6 18L6.00011 18.0105C6.03396 22.4819 7.04155 26.0491 8.99489 28.6127C11.19 31.4934 14.4575 32.9697 18.7066 33H18.7236C22.5013 32.973 25.1641 31.9519 27.3577 29.6892C30.2277 26.7291 30.1413 23.0186 29.1953 20.7408C28.5167 19.1073 27.2228 17.7807 25.4536 16.9044ZM18.9311 23.2355C17.3511 23.3273 15.7095 22.5952 15.6286 21.0269C15.5686 19.8641 16.4302 18.5666 19.0281 18.412C19.3256 18.3943 19.6175 18.3856 19.9043 18.3856C20.848 18.3856 21.7308 18.4803 22.5334 18.6614C22.234 22.5211 20.4781 23.1478 18.9311 23.2355Z" fill="#F7F7F7"/>
</svg>
