<svg width="36" height="36" viewBox="0 0 36 36" fill="none" xmlns="http://www.w3.org/2000/svg">
<path d="M18.0043 1.17773H17.9956C8.74532 1.17773 1.22314 8.72234 1.22314 18C1.22314 21.6799 2.40573 25.0909 4.41688 27.8601L2.32635 34.1089L8.77513 32.0422C11.4277 33.8044 14.5922 34.8222 18.0043 34.8222C27.2546 34.8222 34.7768 27.2752 34.7768 17.9999C34.7768 8.72459 27.2545 1.17773 18.0043 1.17773Z" fill="#5ACF5F"/>
<path d="M27.7663 24.9326C27.3614 26.0789 25.755 27.0291 24.474 27.3071C23.5969 27.4939 22.4522 27.6435 18.5981 26.041C13.6674 23.9931 10.4925 18.9694 10.2453 18.6435C10.008 18.3174 8.25293 15.9838 8.25293 13.5694C8.25293 11.1555 9.47538 9.97977 9.96841 9.47556C10.3728 9.06093 11.0419 8.87207 11.6836 8.87207C11.8913 8.87207 12.0778 8.88234 12.2459 8.89084C12.7387 8.91208 12.9859 8.94126 13.3112 9.72144C13.7159 10.6994 14.7013 13.1133 14.8191 13.3616C14.9387 13.6098 15.0578 13.946 14.8902 14.2718C14.7327 14.6084 14.5946 14.7576 14.3471 15.0435C14.0995 15.3299 13.8644 15.5485 13.6171 15.8552C13.3908 16.1222 13.1349 16.4083 13.4202 16.9025C13.7053 17.3862 14.6907 18.9987 16.1418 20.2941C18.015 21.9657 19.5329 22.4999 20.0763 22.7271C20.481 22.8955 20.9632 22.8553 21.2586 22.5399C21.6341 22.1339 22.098 21.4612 22.5696 20.799C22.9051 20.3237 23.3286 20.2647 23.7733 20.4329C24.2262 20.5906 26.6231 21.7788 27.116 22.0248C27.6086 22.2729 27.9341 22.3906 28.0536 22.5989C28.171 22.8067 28.171 23.7847 27.7663 24.9326Z" fill="#FCFCFC"/>
</svg>
