<svg width="36" height="36" viewBox="0 0 36 36" fill="none" xmlns="http://www.w3.org/2000/svg">
<path d="M29.3277 6.52809C26.3026 3.49594 22.2742 1.82812 17.9929 1.82812C9.15613 1.82812 1.96541 9.01891 1.96541 17.8555C1.96541 20.6783 2.70186 23.4362 4.10249 25.8692L1.82837 34.1717L10.3258 31.9409C12.6649 33.2186 15.3 33.8902 17.9857 33.8902H17.9929C26.8225 33.8902 34.1719 26.6994 34.1719 17.8628C34.1718 13.5816 32.3526 9.56032 29.3277 6.52809Z" fill="white"/>
<path d="M17.9927 31.1902C15.5959 31.1902 13.2495 30.5477 11.2063 29.3348L10.7226 29.046L5.68335 30.3671L7.02625 25.4506L6.70858 24.9453C5.37299 22.8227 4.67261 20.3753 4.67261 17.8556C4.67261 10.5133 10.6504 4.53564 18 4.53564C21.5591 4.53564 24.9017 5.92179 27.4143 8.44136C29.9266 10.961 31.4717 14.3037 31.4645 17.863C31.4645 25.2126 25.3349 31.1902 17.9927 31.1902Z" fill="#333333"/>
<path d="M25.299 21.2128C24.902 21.0108 22.9311 20.0431 22.5629 19.9134C22.1947 19.7761 21.9276 19.7112 21.6605 20.1155C21.3934 20.5198 20.6281 21.4149 20.3898 21.6894C20.1588 21.9565 19.9205 21.9926 19.5234 21.7904C17.1699 20.6138 15.625 19.6896 14.0727 17.0255C13.6612 16.318 14.4844 16.3685 15.2495 14.8381C15.3796 14.5708 15.3146 14.3399 15.2134 14.1377C15.1124 13.9356 14.311 11.9646 13.9789 11.1632C13.654 10.3835 13.3219 10.4918 13.0764 10.4774C12.8454 10.4629 12.5782 10.4629 12.3112 10.4629C12.044 10.4629 11.6109 10.564 11.2427 10.9611C10.8745 11.3654 9.84204 12.3329 9.84204 14.3038C9.84204 16.2747 11.2787 18.1807 11.4736 18.4478C11.6757 18.7148 14.2965 22.7579 18.3177 24.4978C20.8591 25.5952 21.8554 25.6889 23.1261 25.5013C23.8985 25.3857 25.4942 24.5338 25.8262 23.5953C26.1583 22.6568 26.1583 21.8556 26.0572 21.6895C25.9634 21.5088 25.6961 21.4078 25.299 21.2128Z" fill="white"/>
</svg>
