<svg width="36" height="36" viewBox="0 0 36 36" fill="none" xmlns="http://www.w3.org/2000/svg">
<path d="M34.5 14.5652C34.5742 12.4182 34.1047 10.2872 33.135 8.37022C32.4771 7.58362 31.5641 7.05279 30.555 6.87022C26.3813 6.49151 22.1903 6.33629 18 6.40522C13.825 6.33316 9.6491 6.48337 5.49004 6.85522C4.66777 7.0048 3.90682 7.39048 3.30004 7.96522C1.95004 9.21022 1.80004 11.3402 1.65004 13.1402C1.43241 16.3766 1.43241 19.6239 1.65004 22.8602C1.69344 23.8733 1.84428 24.879 2.10004 25.8602C2.2809 26.6178 2.64682 27.3187 3.16504 27.9002C3.77594 28.5054 4.55462 28.913 5.40004 29.0702C8.63391 29.4694 11.8924 29.6348 15.15 29.5652C20.4 29.6402 25.005 29.5652 30.45 29.1452C31.3162 28.9977 32.1168 28.5895 32.745 27.9752C33.165 27.5551 33.4787 27.0409 33.66 26.4752C34.1965 24.8291 34.46 23.1064 34.44 21.3752C34.5 20.5352 34.5 15.4652 34.5 14.5652ZM14.61 22.2752V12.9902L23.49 17.6552C21 19.0352 17.715 20.5952 14.61 22.2752Z" fill="#F7F7F7"/>
</svg>
